<mxfile host="app.diagrams.net" modified="2020-11-08T02:16:40.344Z" agent="5.0 (Macintosh; Intel Mac OS X 10_15_7) AppleWebKit/537.36 (KHTML, like Gecko) Chrome/86.0.4240.183 Safari/537.36" etag="lhqbNMcYBRhtnnbTSjLL" version="13.9.2" type="github">
  <diagram id="GbfVeWL-1UHgIMeaEQac" name="Page-1">
    <mxGraphModel dx="4208" dy="1533" grid="1" gridSize="10" guides="1" tooltips="1" connect="1" arrows="1" fold="1" page="1" pageScale="1" pageWidth="1100" pageHeight="850" math="0" shadow="0">
      <root>
        <mxCell id="0" />
        <mxCell id="1" parent="0" />
        <mxCell id="Axg63tw5LNc3EiZ85ATB-30" value="" style="swimlane;html=1;childLayout=stackLayout;resizeParent=1;resizeParentMax=0;startSize=20;" vertex="1" parent="1">
          <mxGeometry x="-1060" y="60" width="960" height="1480" as="geometry">
            <mxRectangle x="-710" y="460" width="60" height="20" as="alternateBounds" />
          </mxGeometry>
        </mxCell>
        <mxCell id="Axg63tw5LNc3EiZ85ATB-31" value="SHP" style="swimlane;html=1;startSize=20;" vertex="1" parent="Axg63tw5LNc3EiZ85ATB-30">
          <mxGeometry y="20" width="340" height="1460" as="geometry" />
        </mxCell>
        <mxCell id="Axg63tw5LNc3EiZ85ATB-5" value="" style="ellipse;fillColor=#000000;strokeColor=none;" vertex="1" parent="Axg63tw5LNc3EiZ85ATB-31">
          <mxGeometry x="165" y="70" width="30" height="30" as="geometry" />
        </mxCell>
        <mxCell id="Axg63tw5LNc3EiZ85ATB-8" value="" style="rhombus;whiteSpace=wrap;html=1;" vertex="1" parent="Axg63tw5LNc3EiZ85ATB-31">
          <mxGeometry x="165" y="140" width="30" height="50" as="geometry" />
        </mxCell>
        <mxCell id="Axg63tw5LNc3EiZ85ATB-13" style="edgeStyle=orthogonalEdgeStyle;rounded=0;orthogonalLoop=1;jettySize=auto;html=1;entryX=0.5;entryY=0;entryDx=0;entryDy=0;" edge="1" parent="Axg63tw5LNc3EiZ85ATB-31" source="Axg63tw5LNc3EiZ85ATB-5" target="Axg63tw5LNc3EiZ85ATB-8">
          <mxGeometry relative="1" as="geometry" />
        </mxCell>
        <mxCell id="Axg63tw5LNc3EiZ85ATB-15" value="[user is home]" style="text;html=1;align=center;verticalAlign=middle;resizable=0;points=[];autosize=1;" vertex="1" parent="Axg63tw5LNc3EiZ85ATB-31">
          <mxGeometry x="55" y="140" width="90" height="20" as="geometry" />
        </mxCell>
        <mxCell id="Axg63tw5LNc3EiZ85ATB-16" value="" style="ellipse;html=1;shape=endState;fillColor=#000000;strokeColor=#000000;" vertex="1" parent="Axg63tw5LNc3EiZ85ATB-31">
          <mxGeometry x="15" y="150" width="30" height="30" as="geometry" />
        </mxCell>
        <mxCell id="Axg63tw5LNc3EiZ85ATB-17" style="edgeStyle=orthogonalEdgeStyle;rounded=0;orthogonalLoop=1;jettySize=auto;html=1;entryX=1;entryY=0.5;entryDx=0;entryDy=0;" edge="1" parent="Axg63tw5LNc3EiZ85ATB-31" source="Axg63tw5LNc3EiZ85ATB-8" target="Axg63tw5LNc3EiZ85ATB-16">
          <mxGeometry relative="1" as="geometry" />
        </mxCell>
        <mxCell id="Axg63tw5LNc3EiZ85ATB-18" value="Set away mode" style="html=1;align=center;verticalAlign=top;rounded=1;absoluteArcSize=1;arcSize=18;dashed=0;" vertex="1" parent="Axg63tw5LNc3EiZ85ATB-31">
          <mxGeometry x="112.5" y="260" width="135" height="40" as="geometry" />
        </mxCell>
        <mxCell id="Axg63tw5LNc3EiZ85ATB-19" style="edgeStyle=orthogonalEdgeStyle;rounded=0;orthogonalLoop=1;jettySize=auto;html=1;entryX=0.5;entryY=0;entryDx=0;entryDy=0;" edge="1" parent="Axg63tw5LNc3EiZ85ATB-31" source="Axg63tw5LNc3EiZ85ATB-8" target="Axg63tw5LNc3EiZ85ATB-18">
          <mxGeometry relative="1" as="geometry" />
        </mxCell>
        <mxCell id="Axg63tw5LNc3EiZ85ATB-20" value="[users are not home]" style="text;html=1;align=center;verticalAlign=middle;resizable=0;points=[];autosize=1;" vertex="1" parent="Axg63tw5LNc3EiZ85ATB-31">
          <mxGeometry x="185" y="210" width="130" height="20" as="geometry" />
        </mxCell>
        <mxCell id="Axg63tw5LNc3EiZ85ATB-21" value="" style="rhombus;whiteSpace=wrap;html=1;" vertex="1" parent="Axg63tw5LNc3EiZ85ATB-31">
          <mxGeometry x="165" y="360" width="30" height="50" as="geometry" />
        </mxCell>
        <mxCell id="Axg63tw5LNc3EiZ85ATB-22" style="edgeStyle=orthogonalEdgeStyle;rounded=0;orthogonalLoop=1;jettySize=auto;html=1;entryX=0.5;entryY=0;entryDx=0;entryDy=0;" edge="1" parent="Axg63tw5LNc3EiZ85ATB-31" source="Axg63tw5LNc3EiZ85ATB-18" target="Axg63tw5LNc3EiZ85ATB-21">
          <mxGeometry relative="1" as="geometry" />
        </mxCell>
        <mxCell id="Axg63tw5LNc3EiZ85ATB-23" value="" style="ellipse;html=1;shape=endState;fillColor=#000000;strokeColor=#000000;" vertex="1" parent="Axg63tw5LNc3EiZ85ATB-31">
          <mxGeometry x="35" y="370" width="30" height="30" as="geometry" />
        </mxCell>
        <mxCell id="Axg63tw5LNc3EiZ85ATB-24" style="edgeStyle=orthogonalEdgeStyle;rounded=0;orthogonalLoop=1;jettySize=auto;html=1;entryX=1;entryY=0.5;entryDx=0;entryDy=0;" edge="1" parent="Axg63tw5LNc3EiZ85ATB-31" source="Axg63tw5LNc3EiZ85ATB-21" target="Axg63tw5LNc3EiZ85ATB-23">
          <mxGeometry relative="1" as="geometry" />
        </mxCell>
        <mxCell id="Axg63tw5LNc3EiZ85ATB-25" value="[off]" style="text;html=1;align=center;verticalAlign=middle;resizable=0;points=[];autosize=1;" vertex="1" parent="Axg63tw5LNc3EiZ85ATB-31">
          <mxGeometry x="95" y="360" width="40" height="20" as="geometry" />
        </mxCell>
        <mxCell id="Axg63tw5LNc3EiZ85ATB-38" value="[on]" style="text;html=1;align=center;verticalAlign=middle;resizable=0;points=[];autosize=1;" vertex="1" parent="Axg63tw5LNc3EiZ85ATB-31">
          <mxGeometry x="240" y="360" width="40" height="20" as="geometry" />
        </mxCell>
        <mxCell id="Axg63tw5LNc3EiZ85ATB-80" style="edgeStyle=orthogonalEdgeStyle;rounded=0;orthogonalLoop=1;jettySize=auto;html=1;entryX=0.5;entryY=0;entryDx=0;entryDy=0;" edge="1" parent="Axg63tw5LNc3EiZ85ATB-31" source="Axg63tw5LNc3EiZ85ATB-78" target="Axg63tw5LNc3EiZ85ATB-79">
          <mxGeometry relative="1" as="geometry" />
        </mxCell>
        <mxCell id="Axg63tw5LNc3EiZ85ATB-83" style="edgeStyle=orthogonalEdgeStyle;rounded=0;orthogonalLoop=1;jettySize=auto;html=1;entryX=1;entryY=0.5;entryDx=0;entryDy=0;" edge="1" parent="Axg63tw5LNc3EiZ85ATB-31" source="Axg63tw5LNc3EiZ85ATB-78" target="Axg63tw5LNc3EiZ85ATB-82">
          <mxGeometry relative="1" as="geometry" />
        </mxCell>
        <mxCell id="Axg63tw5LNc3EiZ85ATB-78" value="" style="rhombus;whiteSpace=wrap;html=1;" vertex="1" parent="Axg63tw5LNc3EiZ85ATB-31">
          <mxGeometry x="150" y="1000" width="30" height="50" as="geometry" />
        </mxCell>
        <mxCell id="Axg63tw5LNc3EiZ85ATB-86" style="edgeStyle=orthogonalEdgeStyle;rounded=0;orthogonalLoop=1;jettySize=auto;html=1;" edge="1" parent="Axg63tw5LNc3EiZ85ATB-31" source="Axg63tw5LNc3EiZ85ATB-79" target="Axg63tw5LNc3EiZ85ATB-87">
          <mxGeometry relative="1" as="geometry">
            <mxPoint x="232.5000000000001" y="1170" as="targetPoint" />
          </mxGeometry>
        </mxCell>
        <mxCell id="Axg63tw5LNc3EiZ85ATB-79" value="Send a notification" style="html=1;align=center;verticalAlign=top;rounded=1;absoluteArcSize=1;arcSize=18;dashed=0;" vertex="1" parent="Axg63tw5LNc3EiZ85ATB-31">
          <mxGeometry x="165" y="1090" width="135" height="40" as="geometry" />
        </mxCell>
        <mxCell id="Axg63tw5LNc3EiZ85ATB-81" value="[people detected in the house]" style="text;html=1;align=center;verticalAlign=middle;resizable=0;points=[];autosize=1;" vertex="1" parent="Axg63tw5LNc3EiZ85ATB-31">
          <mxGeometry x="160" y="1050" width="180" height="20" as="geometry" />
        </mxCell>
        <mxCell id="Axg63tw5LNc3EiZ85ATB-82" value="" style="ellipse;html=1;shape=endState;fillColor=#000000;strokeColor=#000000;" vertex="1" parent="Axg63tw5LNc3EiZ85ATB-31">
          <mxGeometry x="55" y="1010" width="30" height="30" as="geometry" />
        </mxCell>
        <mxCell id="Axg63tw5LNc3EiZ85ATB-84" value="[else]" style="text;html=1;align=center;verticalAlign=middle;resizable=0;points=[];autosize=1;" vertex="1" parent="Axg63tw5LNc3EiZ85ATB-31">
          <mxGeometry x="105" y="1000" width="40" height="20" as="geometry" />
        </mxCell>
        <mxCell id="Axg63tw5LNc3EiZ85ATB-90" style="edgeStyle=orthogonalEdgeStyle;rounded=0;orthogonalLoop=1;jettySize=auto;html=1;" edge="1" parent="Axg63tw5LNc3EiZ85ATB-31" source="Axg63tw5LNc3EiZ85ATB-87" target="Axg63tw5LNc3EiZ85ATB-89">
          <mxGeometry relative="1" as="geometry" />
        </mxCell>
        <mxCell id="Axg63tw5LNc3EiZ85ATB-87" value="Call the authorities" style="html=1;align=center;verticalAlign=top;rounded=1;absoluteArcSize=1;arcSize=18;dashed=0;" vertex="1" parent="Axg63tw5LNc3EiZ85ATB-31">
          <mxGeometry x="165" y="1240" width="135" height="40" as="geometry" />
        </mxCell>
        <mxCell id="Axg63tw5LNc3EiZ85ATB-88" value="[when time is elapsed]" style="text;html=1;align=center;verticalAlign=middle;resizable=0;points=[];autosize=1;" vertex="1" parent="Axg63tw5LNc3EiZ85ATB-31">
          <mxGeometry x="100" y="1180" width="130" height="20" as="geometry" />
        </mxCell>
        <mxCell id="Axg63tw5LNc3EiZ85ATB-89" value="" style="ellipse;html=1;shape=endState;fillColor=#000000;strokeColor=#000000;" vertex="1" parent="Axg63tw5LNc3EiZ85ATB-31">
          <mxGeometry x="217.5" y="1330" width="30" height="30" as="geometry" />
        </mxCell>
        <mxCell id="Axg63tw5LNc3EiZ85ATB-37" style="edgeStyle=orthogonalEdgeStyle;rounded=0;orthogonalLoop=1;jettySize=auto;html=1;" edge="1" parent="Axg63tw5LNc3EiZ85ATB-30" source="Axg63tw5LNc3EiZ85ATB-21">
          <mxGeometry relative="1" as="geometry">
            <mxPoint x="579" y="510" as="targetPoint" />
          </mxGeometry>
        </mxCell>
        <mxCell id="Axg63tw5LNc3EiZ85ATB-32" value="SHC" style="swimlane;html=1;startSize=20;" vertex="1" parent="Axg63tw5LNc3EiZ85ATB-30">
          <mxGeometry x="340" y="20" width="620" height="1460" as="geometry" />
        </mxCell>
        <mxCell id="Axg63tw5LNc3EiZ85ATB-42" style="edgeStyle=orthogonalEdgeStyle;rounded=0;orthogonalLoop=1;jettySize=auto;html=1;entryX=0.5;entryY=0;entryDx=0;entryDy=0;" edge="1" parent="Axg63tw5LNc3EiZ85ATB-32" source="Axg63tw5LNc3EiZ85ATB-35" target="Axg63tw5LNc3EiZ85ATB-39">
          <mxGeometry relative="1" as="geometry" />
        </mxCell>
        <mxCell id="Axg63tw5LNc3EiZ85ATB-43" style="edgeStyle=orthogonalEdgeStyle;rounded=0;orthogonalLoop=1;jettySize=auto;html=1;" edge="1" parent="Axg63tw5LNc3EiZ85ATB-32" source="Axg63tw5LNc3EiZ85ATB-35" target="Axg63tw5LNc3EiZ85ATB-40">
          <mxGeometry relative="1" as="geometry" />
        </mxCell>
        <mxCell id="Axg63tw5LNc3EiZ85ATB-44" style="edgeStyle=orthogonalEdgeStyle;rounded=0;orthogonalLoop=1;jettySize=auto;html=1;" edge="1" parent="Axg63tw5LNc3EiZ85ATB-32" source="Axg63tw5LNc3EiZ85ATB-35" target="Axg63tw5LNc3EiZ85ATB-41">
          <mxGeometry relative="1" as="geometry" />
        </mxCell>
        <mxCell id="Axg63tw5LNc3EiZ85ATB-35" value="" style="html=1;points=[];perimeter=orthogonalPerimeter;fillColor=#000000;strokeColor=none;rotation=90;" vertex="1" parent="Axg63tw5LNc3EiZ85ATB-32">
          <mxGeometry x="297.82" y="208.44" width="5" height="563.13" as="geometry" />
        </mxCell>
        <mxCell id="Axg63tw5LNc3EiZ85ATB-73" style="edgeStyle=orthogonalEdgeStyle;rounded=0;orthogonalLoop=1;jettySize=auto;html=1;entryX=-0.041;entryY=0.582;entryDx=0;entryDy=0;entryPerimeter=0;" edge="1" parent="Axg63tw5LNc3EiZ85ATB-32" source="Axg63tw5LNc3EiZ85ATB-39" target="Axg63tw5LNc3EiZ85ATB-72">
          <mxGeometry relative="1" as="geometry" />
        </mxCell>
        <mxCell id="Axg63tw5LNc3EiZ85ATB-39" value="Close all doors" style="html=1;align=center;verticalAlign=top;rounded=1;absoluteArcSize=1;arcSize=18;dashed=0;" vertex="1" parent="Axg63tw5LNc3EiZ85ATB-32">
          <mxGeometry x="30" y="550" width="135" height="40" as="geometry" />
        </mxCell>
        <mxCell id="Axg63tw5LNc3EiZ85ATB-40" value="Lock all doors" style="html=1;align=center;verticalAlign=top;rounded=1;absoluteArcSize=1;arcSize=18;dashed=0;" vertex="1" parent="Axg63tw5LNc3EiZ85ATB-32">
          <mxGeometry x="182.5" y="550" width="135" height="40" as="geometry" />
        </mxCell>
        <mxCell id="Axg63tw5LNc3EiZ85ATB-53" style="edgeStyle=orthogonalEdgeStyle;rounded=0;orthogonalLoop=1;jettySize=auto;html=1;" edge="1" parent="Axg63tw5LNc3EiZ85ATB-32" source="Axg63tw5LNc3EiZ85ATB-41" target="Axg63tw5LNc3EiZ85ATB-52">
          <mxGeometry relative="1" as="geometry" />
        </mxCell>
        <mxCell id="Axg63tw5LNc3EiZ85ATB-75" style="edgeStyle=orthogonalEdgeStyle;rounded=0;orthogonalLoop=1;jettySize=auto;html=1;entryX=-0.013;entryY=0.582;entryDx=0;entryDy=0;entryPerimeter=0;" edge="1" parent="Axg63tw5LNc3EiZ85ATB-32" source="Axg63tw5LNc3EiZ85ATB-41" target="Axg63tw5LNc3EiZ85ATB-72">
          <mxGeometry relative="1" as="geometry">
            <Array as="points">
              <mxPoint x="370" y="600" />
              <mxPoint x="300" y="600" />
              <mxPoint x="300" y="770" />
              <mxPoint x="254" y="770" />
            </Array>
          </mxGeometry>
        </mxCell>
        <mxCell id="Axg63tw5LNc3EiZ85ATB-41" value="Turn lights off" style="html=1;align=center;verticalAlign=top;rounded=1;absoluteArcSize=1;arcSize=18;dashed=0;" vertex="1" parent="Axg63tw5LNc3EiZ85ATB-32">
          <mxGeometry x="340" y="550" width="135" height="40" as="geometry" />
        </mxCell>
        <mxCell id="Axg63tw5LNc3EiZ85ATB-59" style="edgeStyle=orthogonalEdgeStyle;rounded=0;orthogonalLoop=1;jettySize=auto;html=1;" edge="1" parent="Axg63tw5LNc3EiZ85ATB-32" source="Axg63tw5LNc3EiZ85ATB-52" target="Axg63tw5LNc3EiZ85ATB-58">
          <mxGeometry relative="1" as="geometry" />
        </mxCell>
        <mxCell id="Axg63tw5LNc3EiZ85ATB-61" style="edgeStyle=orthogonalEdgeStyle;rounded=0;orthogonalLoop=1;jettySize=auto;html=1;entryX=1;entryY=0.5;entryDx=0;entryDy=0;" edge="1" parent="Axg63tw5LNc3EiZ85ATB-32" source="Axg63tw5LNc3EiZ85ATB-52" target="Axg63tw5LNc3EiZ85ATB-41">
          <mxGeometry relative="1" as="geometry">
            <Array as="points">
              <mxPoint x="495" y="655" />
              <mxPoint x="495" y="570" />
            </Array>
          </mxGeometry>
        </mxCell>
        <mxCell id="Axg63tw5LNc3EiZ85ATB-52" value="" style="rhombus;whiteSpace=wrap;html=1;" vertex="1" parent="Axg63tw5LNc3EiZ85ATB-32">
          <mxGeometry x="392.5" y="630" width="30" height="50" as="geometry" />
        </mxCell>
        <mxCell id="Axg63tw5LNc3EiZ85ATB-64" style="edgeStyle=orthogonalEdgeStyle;rounded=0;orthogonalLoop=1;jettySize=auto;html=1;entryX=0.5;entryY=0;entryDx=0;entryDy=0;" edge="1" parent="Axg63tw5LNc3EiZ85ATB-32" source="Axg63tw5LNc3EiZ85ATB-58" target="Axg63tw5LNc3EiZ85ATB-63">
          <mxGeometry relative="1" as="geometry" />
        </mxCell>
        <mxCell id="Axg63tw5LNc3EiZ85ATB-58" value="Keep lights on" style="html=1;align=center;verticalAlign=top;rounded=1;absoluteArcSize=1;arcSize=18;dashed=0;" vertex="1" parent="Axg63tw5LNc3EiZ85ATB-32">
          <mxGeometry x="340" y="740" width="135" height="40" as="geometry" />
        </mxCell>
        <mxCell id="Axg63tw5LNc3EiZ85ATB-60" value="[user selected lights]" style="text;html=1;align=center;verticalAlign=middle;resizable=0;points=[];autosize=1;" vertex="1" parent="Axg63tw5LNc3EiZ85ATB-32">
          <mxGeometry x="410" y="700" width="120" height="20" as="geometry" />
        </mxCell>
        <mxCell id="Axg63tw5LNc3EiZ85ATB-62" value="[else]" style="text;html=1;align=center;verticalAlign=middle;resizable=0;points=[];autosize=1;" vertex="1" parent="Axg63tw5LNc3EiZ85ATB-32">
          <mxGeometry x="500" y="620" width="40" height="20" as="geometry" />
        </mxCell>
        <mxCell id="Axg63tw5LNc3EiZ85ATB-66" style="edgeStyle=orthogonalEdgeStyle;rounded=0;orthogonalLoop=1;jettySize=auto;html=1;entryX=1;entryY=0.25;entryDx=0;entryDy=0;" edge="1" parent="Axg63tw5LNc3EiZ85ATB-32" source="Axg63tw5LNc3EiZ85ATB-63" target="Axg63tw5LNc3EiZ85ATB-41">
          <mxGeometry relative="1" as="geometry">
            <Array as="points">
              <mxPoint x="560" y="845" />
              <mxPoint x="560" y="560" />
            </Array>
          </mxGeometry>
        </mxCell>
        <mxCell id="Axg63tw5LNc3EiZ85ATB-68" style="edgeStyle=orthogonalEdgeStyle;rounded=0;orthogonalLoop=1;jettySize=auto;html=1;entryX=0;entryY=0.5;entryDx=0;entryDy=0;" edge="1" parent="Axg63tw5LNc3EiZ85ATB-32" source="Axg63tw5LNc3EiZ85ATB-63" target="Axg63tw5LNc3EiZ85ATB-58">
          <mxGeometry relative="1" as="geometry">
            <Array as="points">
              <mxPoint x="320" y="845" />
              <mxPoint x="320" y="760" />
            </Array>
          </mxGeometry>
        </mxCell>
        <mxCell id="Axg63tw5LNc3EiZ85ATB-63" value="" style="rhombus;whiteSpace=wrap;html=1;" vertex="1" parent="Axg63tw5LNc3EiZ85ATB-32">
          <mxGeometry x="392.5" y="820" width="30" height="50" as="geometry" />
        </mxCell>
        <mxCell id="Axg63tw5LNc3EiZ85ATB-67" value="[end time reached]" style="text;html=1;align=center;verticalAlign=middle;resizable=0;points=[];autosize=1;" vertex="1" parent="Axg63tw5LNc3EiZ85ATB-32">
          <mxGeometry x="430" y="810" width="110" height="20" as="geometry" />
        </mxCell>
        <mxCell id="Axg63tw5LNc3EiZ85ATB-69" value="[else]" style="text;html=1;align=center;verticalAlign=middle;resizable=0;points=[];autosize=1;" vertex="1" parent="Axg63tw5LNc3EiZ85ATB-32">
          <mxGeometry x="330" y="820" width="40" height="20" as="geometry" />
        </mxCell>
        <mxCell id="Axg63tw5LNc3EiZ85ATB-72" value="" style="html=1;points=[];perimeter=orthogonalPerimeter;fillColor=#000000;strokeColor=none;rotation=90;" vertex="1" parent="Axg63tw5LNc3EiZ85ATB-32">
          <mxGeometry x="297.82" y="670" width="5" height="563.13" as="geometry" />
        </mxCell>
        <mxCell id="Axg63tw5LNc3EiZ85ATB-74" style="edgeStyle=orthogonalEdgeStyle;rounded=0;orthogonalLoop=1;jettySize=auto;html=1;entryX=0.006;entryY=0.582;entryDx=0;entryDy=0;entryPerimeter=0;" edge="1" parent="Axg63tw5LNc3EiZ85ATB-32" source="Axg63tw5LNc3EiZ85ATB-40" target="Axg63tw5LNc3EiZ85ATB-72">
          <mxGeometry relative="1" as="geometry">
            <mxPoint x="253" y="948" as="targetPoint" />
          </mxGeometry>
        </mxCell>
        <mxCell id="Axg63tw5LNc3EiZ85ATB-77" style="edgeStyle=orthogonalEdgeStyle;rounded=0;orthogonalLoop=1;jettySize=auto;html=1;entryX=0.5;entryY=0;entryDx=0;entryDy=0;exitX=0.987;exitY=0.581;exitDx=0;exitDy=0;exitPerimeter=0;" edge="1" parent="Axg63tw5LNc3EiZ85ATB-30" source="Axg63tw5LNc3EiZ85ATB-72">
          <mxGeometry relative="1" as="geometry">
            <mxPoint x="165" y="1020" as="targetPoint" />
          </mxGeometry>
        </mxCell>
      </root>
    </mxGraphModel>
  </diagram>
</mxfile>
